<?xml version="1.0" encoding="utf-8"?>
<svg width="401px" height="646px" viewBox="0 0 401 646" version="1.1" xmlns:xlink="http://www.w3.org/1999/xlink" xmlns="http://www.w3.org/2000/svg">
  <defs>
    <linearGradient gradientUnits="userSpaceOnUse" x1="35.280647" y1="-0.9427091" x2="43.600548" y2="74.57709" id="gradient_1">
      <stop offset="0%" stop-color="#096738" />
      <stop offset="100%" stop-color="#0A4C2D" />
    </linearGradient>
    <linearGradient gradientUnits="userSpaceOnUse" x1="48.000366" y1="-2.8529031" x2="63.68036" y2="72.02707" id="gradient_2">
      <stop offset="0%" stop-color="#4ED062" />
      <stop offset="100%" stop-color="#209B4E" />
    </linearGradient>
    <linearGradient gradientUnits="userSpaceOnUse" x1="56.66335" y1="77.53726" x2="48.723053" y2="77.53726" id="gradient_3">
      <stop offset="0%" stop-color="#000000" />
      <stop offset="27.193201%" stop-color="#000000" stop-opacity="0.56078434" />
      <stop offset="62.0896%" stop-color="#000000" stop-opacity="0.2627451" />
      <stop offset="100%" stop-color="#000000" stop-opacity="0" />
    </linearGradient>
    <linearGradient gradientUnits="userSpaceOnUse" x1="33.772343" y1="33.772373" x2="21.553642" y2="-4.104728" id="gradient_4">
      <stop offset="0%" stop-color="#66EB6E" />
      <stop offset="100%" stop-color="#9FE0A2" />
    </linearGradient>
    <path d="M0 0L400 0L400 645L0 645L0 0Z" id="path_1" />
    <path d="M0 0L96 0L96 96L0 96L0 0Z" id="path_2" />
    <path d="M0 0L95.9998 0L95.9998 96L0 96L0 0Z" id="path_3" />
    <path d="M0 0L95.9998 0L95.9998 95.9998L0 95.9998L0 0Z" id="path_4" />
    <path d="M92.0365 10.3632L92.0334 10.3631C90.7527 7.38814 88.5368 4.78544 85.5161 3.04144C78.0636 -1.26129 68.5342 1.29184 64.2309 8.74394L64.2268 8.74364C63.8411 8.39954 63.4442 8.06234 63.0366 7.73124C49.8317 -2.99616 29.185 -3.04423 13.9592 10.6423C0.282364 22.9366 -3.99641 44.5982 4.04307 63.369L4.04805 63.3693C5.33463 66.3061 7.53594 68.8734 10.5256 70.5995C17.9758 74.9008 27.5014 72.3508 31.8066 64.9043L31.8108 64.9045L31.8146 64.8978C32.2003 65.242 32.5969 65.5798 33.0044 65.9109C46.2093 76.6383 66.856 76.6863 82.0818 62.9998C95.7368 50.7252 100.024 29.1132 92.0365 10.3632L92.0365 10.3632Z" id="path_5" />
    <clipPath id="mask_1">
      <use xlink:href="#path_1" />
    </clipPath>
    <clipPath id="mask_2">
      <use xlink:href="#path_2" />
    </clipPath>
    <clipPath id="mask_3">
      <use xlink:href="#path_3" />
    </clipPath>
    <clipPath id="mask_4">
      <use xlink:href="#path_4" />
    </clipPath>
    <clipPath id="mask_5">
      <use xlink:href="#path_5" />
    </clipPath>
  </defs>
  <g id="Group" transform="translate(0.5 0.5)">
    <g id="powershell-hero">
      <path d="M0 0L400 0L400 645L0 645L0 0Z" id="Background" fill="#FFFFFF" fill-opacity="0" fill-rule="evenodd" stroke="none" />
      <g clip-path="url(#mask_1)">
        <g id="g28" transform="translate(205.25269 232.94385)">
          <path d="M0.35942 0.770819L7.59017 42.2868C13.5037 36.2283 14.5017 31.1235 14.5017 31.1235L0 0" id="path30" fill="#242859" stroke="none" />
        </g>
        <g id="g32" transform="translate(86.490845 113.78186)">
          <path d="M298.439 330.289C282.671 307.944 263.226 289.047 242.84 269.416C215.258 242.85 184.531 218.621 162.475 187.35C143.493 160.436 134.694 129.061 130.22 96.863C128.419 83.9046 130.157 60.7635 126.63 48.1292C122.382 32.9103 114.317 11.7991 103.437 0C90.73 0.62538 77.6322 0.105973 64.8156 0.105973C69.6424 4.04316 75.8414 7.36535 83.8016 9.49078C75.8414 7.36535 69.6424 4.04316 64.8156 0.105973L50.6712 0.105973L45.7323 33.4401C42.7322 54.649 40.0407 75.8329 36.8186 96.5909C34.8016 109.591 31.7126 122.645 28.2094 135.362C19.987 165.218 10.9295 195.066 5.7179 225.61C-3.90404 282.01 -3.83852 345.221 25.3763 396.652C26.592 398.794 27.8563 400.911 29.1629 403.001C35.5374 413.192 42.9394 423.504 51.6755 431.885C55.9146 435.951 61.4582 440.819 66.1497 445.211C68.1392 447.077 87.7024 460.416 87.7024 460.416C85.1103 434.083 85.9687 406.718 100.46 383.554C119.568 353.008 153.46 340.694 188.347 337.472C208.57 335.604 229.336 337.964 249.377 340.646C269.148 343.293 288.684 347.823 307.784 353.466L313.509 355.167C309.012 346.333 303.951 338.101 298.439 330.289" id="path34" fill="#141A25" stroke="none" />
        </g>
        <g id="g36" transform="translate(104.41229 250.86035)">
          <path d="M66.3933 0L29.804 0.608747C6.20467 23.7727 4.86845 65.3988 3.24471 83.1338C-1.7238 137.326 -0.023941 191.1 2.02266 245.317C2.24043 251.147 6.76494 304.981 3.12842 306.049L44.3818 293.932L54.1983 162.848L66.3933 0Z" id="path38" fill="#242859" stroke="none" />
        </g>
        <g id="g40" transform="translate(104.348816 369.06824)">
          <path d="M2.38277 127.922L21.4787 128.809L21.5464 18.296L0.909134 0C0.327713 12.8546 0.0528564 25.6987 0 38.5408C0.1036 66.5914 0.689247 93.9398 2.08466 122.836C2.12482 123.68 2.22631 125.468 2.38277 127.922" id="path42" fill="#396BBC" stroke="none" />
        </g>
        <g id="g44" transform="translate(102.43811 250.51941)">
          <path d="M5.67062 307.954L4.53316 304.216C4.07224 304.351 3.83122 304.64 3.77625 304.74C4.0659 304.206 4.95812 301.09 4.27099 283.421C3.85236 272.65 3.0278 260.683 2.48232 252.763C2.23284 249.131 2.05313 246.509 2.01296 245.425C-0.168953 187.678 -1.58128 135.595 3.24134 82.9946C3.3534 81.748 3.46757 80.3975 3.59019 78.9514C5.21183 59.6665 8.22887 23.7665 32.4138 0L35.2216 2.75916C12.0641 25.5138 9.12743 60.4851 7.54808 79.2735C7.42334 80.7279 7.30917 82.0908 7.195 83.3457C2.39564 135.717 3.80373 187.668 5.9793 245.279C6.01736 246.306 6.19707 248.903 6.44444 252.499C9.98794 304.019 8.45933 307.136 5.67062 307.954" id="path46" fill="#2B3582" stroke="none" />
        </g>
        <g id="g48" transform="translate(125.82739 251.1654)">
          <path d="M35.9677 121.992L41.746 45.7191L16.3876 0L8.38937 0L0 87.5322L35.9677 121.992Z" id="path50" fill="#396BBC" stroke="none" />
        </g>
        <g id="g52" transform="translate(170.2005 280.98767)">
          <path d="M137.602 231.319C123.164 231.29 104.355 232.042 89.9172 232.015L0 15.9918L51.4525 0L137.602 231.319Z" id="path54" fill="#1C2649" stroke="none" />
        </g>
        <g id="g56" transform="translate(174.54437 296.47388)">
          <path d="M45.8201 44.699L36.9213 0L0 17.5916L27.3648 76.6847L45.8201 44.699Z" id="path58" fill="#235094" stroke="none" />
        </g>
        <g id="g60" transform="translate(2.5998535 130.06836)">
          <path d="M1.54275 59.1337L1.13681 58.0803C-2.29251 49.1858 2.30177 39.1507 11.355 35.7786L104.393 1.1169C113.442 -2.25309 123.654 2.26378 127.085 11.1583L127.491 12.2116C130.923 21.1062 126.326 31.1413 117.275 34.5113L24.2372 69.173C15.186 72.5451 4.97419 68.0282 1.54275 59.1337" id="path62" fill="#141A25" stroke="none" />
        </g>
        <g id="g64" transform="translate(55.06665 141.77869)">
          <path d="M6.25608 25.7423L0 8.61195L22.9693 0L29.2254 17.1283L6.25608 25.7423Z" id="path66" fill="#242859" stroke="none" />
        </g>
        <g id="g68" transform="translate(220.08997 130.19867)">
          <path d="M58.5281 125.493L59.6021 125.099C68.6701 121.774 73.3215 111.762 69.9366 102.851L35.155 11.2423C31.7722 2.33117 21.5836 -2.23969 12.5155 1.08665L11.4415 1.47933C2.37134 4.80569 -2.27791 14.8159 1.1049 23.727L35.8886 115.336C39.2714 124.247 49.46 128.818 58.5281 125.493" id="path70" fill="#141A25" stroke="none" />
        </g>
        <g id="g72" transform="translate(251.92981 209.04541)">
          <path d="M0 30.7495C0 47.7324 13.3705 61.499 29.8617 61.499C46.3551 61.499 59.7256 47.7324 59.7256 30.7495C59.7256 13.7666 46.3551 0 29.8617 0C13.3705 0 0 13.7666 0 30.7495" id="path74" fill="#D3D2D2" stroke="none" />
        </g>
        <g id="g76" transform="translate(251.94836 240.50824)">
          <path d="M0 0C0.369995 16.6525 13.5841 30.0369 29.8448 30.0369C46.1056 30.0369 59.3197 16.6525 59.6875 0L0 0Z" id="path78" fill="#A7A5A6" stroke="none" />
        </g>
        <g id="g80" transform="matrix(-0.8290364 -0.5591946 0.5591946 -0.8290364 324.43066 262.81677)">
          <path d="M1.56567 22.7531L4.03302 26.2186C6.77942 30.0727 12.2363 31.0201 16.1583 28.3213L29.6768 19.0216C33.5988 16.3227 34.5608 10.9602 31.8186 7.10616L29.3491 3.64061C26.6027 -0.213471 21.1458 -1.16088 17.2238 1.53801L3.70529 10.8377C-0.21875 13.5366 -1.18076 18.899 1.56567 22.7531" id="path82" fill="#3684B1" stroke="none" />
        </g>
        <g id="g84" transform="matrix(-0.8290364 -0.5591946 0.5591946 -0.8290364 318.4834 258.84326)">
          <path d="M10.1357 1.52433C14.0238 -1.14963 19.43 -0.212598 22.1489 3.60615L24.7114 7.2026C27.4303 11.0214 26.4768 16.334 22.5908 19.0058L12.4212 26.0034L0 8.49698L10.1357 1.52433Z" id="path86" fill="#141A25" stroke="none" />
        </g>
        <g id="g130" transform="translate(0 0.00018310547)">
          <g id="g160" transform="translate(1.7103882 166.9273)">
            <path d="M4.48046 6.56079L5.24582 5.72141C11.7112 -1.3572 22.8935 -1.94934 30.0968 4.40209L104.146 69.7136C111.35 76.0651 111.952 87.0559 105.487 94.1345L104.722 94.9719C98.2562 102.05 87.0739 102.645 79.8706 96.2912L5.82301 30.9817C-1.38026 24.6282 -1.98494 13.6394 4.48046 6.56079" id="path162" fill="#141A25" stroke="none" />
          </g>
          <g id="g164" transform="translate(14.517639 187.51984)">
            <path d="M15.5969 0L0 17.9968L5.96854 22.9063L21.7916 5.03003L15.5969 0Z" id="path166" fill="#242859" stroke="none" />
          </g>
          <g id="g168" transform="translate(21.719421 193.40594)">
            <path d="M15.5969 0L0 17.9968L5.96643 22.9063L21.7895 5.03003L15.5969 0Z" id="path170" fill="#242859" stroke="none" />
          </g>
          <g id="g172" transform="translate(28.918884 199.29199)">
            <path d="M15.5969 0L0 17.9968L5.96854 22.9063L21.7916 5.03004L15.5969 0Z" id="path174" fill="#242859" stroke="none" />
          </g>
          <g id="g176" transform="translate(36.120605 205.17804)">
            <path d="M15.5969 0L0 17.9968L5.96643 22.9063L21.7895 5.03003L15.5969 0Z" id="path178" fill="#242859" stroke="none" />
          </g>
          <g id="g180" transform="translate(43.320312 211.0647)">
            <path d="M15.5969 0L0 17.9968L5.96643 22.9063L21.7895 5.03003L15.5969 0Z" id="path182" fill="#242859" stroke="none" />
          </g>
          <g id="g184" transform="translate(0 135.12042)">
            <path d="M79.8285 128.221L6.63294 63.6639C-1.39066 56.5874 -2.2575 44.244 4.70263 36.1473C4.80411 36.0268 4.91617 35.8959 5.03245 35.765C5.04725 35.7484 5.07262 35.7193 5.1001 35.6881C5.12125 35.6653 5.14873 35.6383 5.1741 35.6113C7.29047 33.2843 10.001 31.4559 12.9884 30.3423L94.4316 0L95.8376 3.64839L14.3944 33.9907C11.9651 34.8945 9.85295 36.3218 8.11504 38.2312L8.01566 38.3392C7.92264 38.4431 7.83384 38.547 7.74504 38.6529C2.14649 45.1664 2.84208 55.079 9.28633 60.7614L82.4819 125.319L79.8285 128.221Z" id="path186" fill="#2B3582" stroke="none" />
          </g>
          <g id="g188" transform="translate(90.24341 217.48242)">
            <path d="M0.234711 7.26968L0.234711 7.26968C1.43772 2.16276 6.95382 -0.982814 12.4911 0.278329L29.6208 4.18018C35.1601 5.44133 38.7036 10.6501 37.4985 15.757C36.2955 20.8618 30.7794 24.0095 25.2421 22.7483L8.11243 18.8465C2.57307 17.5853 -0.9683 12.3766 0.234711 7.26968" id="path190" fill="#3684B1" stroke="none" />
          </g>
          <g id="g192" transform="translate(90.242676 217.48279)">
            <path d="M27.0539 3.59429L12.491 0.278329C6.95371 -0.982814 1.43974 2.16279 0.234611 7.26968C-0.968399 12.3745 2.5751 17.5853 8.11233 18.8465L25.2441 22.7483C25.796 22.873 26.3499 22.954 26.8996 22.9935C29.0202 16.3449 27.8235 7.67067 27.0539 3.59429" id="path194" fill="#141A25" stroke="none" />
          </g>
          <g id="g196" transform="translate(63.334167 217.14081)">
            <path d="M69.0575 33.4027L41.6081 68.4987C38.7348 72.172 33.4915 72.947 29.8972 70.2314L3.13075 50.0178C-0.463489 47.3002 -1.04914 42.1227 1.82203 38.4493L29.2756 3.35334C32.1468 -0.317919 37.388 -1.09496 40.9844 1.62055L67.7487 21.8363C71.343 24.5518 71.9286 29.7314 69.0575 33.4027" id="path198" fill="#141A25" stroke="none" />
          </g>
          <g id="g200" transform="translate(80.9834 233.95984)">
            <path d="M0.476196 27.4731L21.4158 0.870641C22.1854 -0.10585 23.6125 -0.288688 24.6083 0.463431L33.9723 7.53581C34.9703 8.29209 35.1563 9.70283 34.3846 10.6835L13.4472 37.286C12.6776 38.2646 11.2504 38.4453 10.2525 37.6932L0.890587 30.6208C-0.109451 29.8645 -0.295509 28.4538 0.476196 27.4731" id="path202" fill="#56C0EF" stroke="none" />
          </g>
          <g id="g204" transform="translate(46.71582 206.30719)">
            <path d="M55.3681 2.5119L24.7495 0L0 27.8283L8.54371 62.0807L55.3681 2.5119Z" id="path206" fill="#D3D2D2" stroke="none" />
          </g>
          <g id="g208" transform="translate(46.714783 229.40314)">
            <path d="M0 4.73293L8.54371 38.9854L17.5864 27.5104L4.20737 0L0 4.73293Z" id="path210" fill="#A7A5A6" stroke="none" />
          </g>
          <g id="g212" transform="translate(247.03223 466.03375)">
            <path d="M0 15.5306L48.4587 135.121L58.8482 176.76C59.4656 178.102 60.8271 178.966 62.3261 178.966L130.832 178.966C134.071 178.966 135.839 175.249 133.758 172.808L101.658 130.297L44.3571 0L0 15.5306Z" id="path214" fill="#161F39" stroke="none" />
          </g>
          <g id="g216" transform="translate(193.83868 120.39099)">
            <path d="M7.07007 0.262656C7.07007 0.262656 42.9448 -2.56713 62.897 10.3497L22.7748 48.8926L0 14.4801L7.07007 0.262656Z" id="path218" fill="#141A25" stroke="none" />
          </g>
          <g id="g220" transform="translate(83.66058 120.39136)">
            <path d="M0 10.3497L40.1244 48.8926L62.897 14.4801L55.8248 0.262656C55.8248 0.262656 19.9543 -2.56713 0 10.3497" id="path222" fill="#141A25" stroke="none" />
          </g>
          <g id="g224" transform="translate(198.15338 123.76251)">
            <path d="M55.1017 10.3224C54.903 10.1977 34.9867 -2.01482 0.213547 2.59136L0 1.04558C18.4807 -1.40191 32.7266 0.906379 41.4246 3.27284C50.888 5.84915 56.087 9.04461 56.2942 9.17549L55.1017 10.3224Z" id="path226" fill="#242859" stroke="none" />
          </g>
          <g id="g228" transform="translate(85.95752 123.76233)">
            <path d="M1.1861 10.3245L0 9.1859C0.209312 9.055 5.3977 5.84915 14.8611 3.27285C23.5591 0.90638 37.805 -1.40191 56.2836 1.04558L56.0722 2.59137C21.3011 -2.01483 1.38483 10.1998 1.1861 10.3245" id="path230" fill="#242859" stroke="none" />
          </g>
          <g id="g232" transform="translate(115.14575 120.39087)">
            <path d="M46.8784 0L32.3344 0L4.04147 28.1317C-0.848801 33.5066 -1.35411 41.4744 2.81521 47.4062L55.0521 121.683L107.289 47.4062C111.46 41.4744 110.955 33.5066 106.063 28.1317L77.7698 0L46.8784 0" id="path234" fill="#4072C1" stroke="none" />
          </g>
          <g id="g236" transform="translate(127.137024 174.14117)">
            <path d="M72.4111 114.538L86.1221 6.70257C86.1221 6.70257 67.8803 0 43.6678 0C19.4554 0 0 6.70257 0 6.70257L6.27299 48.0045L13.267 114.278C15.3178 128.793 27.9483 139.923 42.8581 139.923C57.6684 139.923 70.2462 128.936 72.4111 114.538" id="path238" fill="#396BBC" stroke="none" />
          </g>
          <path d="M173.209 246.55L169.209 246.55L169.209 124.399L173.209 124.399L173.209 246.55Z" id="path240" fill="#242859" stroke="none" />
          <g id="g242" transform="translate(209.18536 129.85083)">
            <path d="M15.451 0L25.9208 4.61035L16.3855 21.8695L35.3102 21.7407L7.52464 80.7943L0 27.5104L15.451 0Z" id="path244" fill="#242859" stroke="none" />
          </g>
          <g id="g246" transform="translate(95.93231 129.81451)">
            <path d="M19.9438 0L9.39153 4.64567L18.9247 21.9069L0 21.7781L27.3458 80.8297L35.3102 27.5478L19.9438 0Z" id="path248" fill="#242859" stroke="none" />
          </g>
          <g id="g250" transform="translate(95.02588 127.58984)">
            <path d="M30.9548 89.3086L0 22.0295L18.5801 22.1584L10.2499 6.93528L25.555 0L27.2168 3.54244L15.747 8.74076L25.2484 26.1038L6.17151 25.975L34.5723 87.7005L30.9548 89.3086Z" id="path252" fill="#2B3582" stroke="none" />
          </g>
          <g id="g254" transform="translate(170.29321 46.35614)">
            <path d="M66.5145 21.1195C66.3284 20.7954 66.136 20.4713 65.9415 20.1513C56.3597 4.34025 37.9847 0 18.0198 0L0 0L0 71.449L16.2819 74.3806L39.0567 112.279L65.043 67.838C74.2315 53.4854 74.9673 35.8356 66.5145 21.1195" id="path256" fill="#D3D2D2" stroke="none" />
          </g>
          <g id="g258" transform="translate(98.20465 46.356995)">
            <path d="M60.3136 75.5794L72.0879 71.449L72.0879 0L54.0681 0C34.1032 0 15.7261 4.34026 6.14642 20.1492C3.61143 24.3337 2.23081 28.7778 1.13351 33.3383C-1.61079 44.7385 0.742378 56.6518 6.95406 66.8823L33.1307 111.11L55.8335 74.3806L60.3136 75.5794" id="path260" fill="#D3D2D2" stroke="none" />
          </g>
          <g id="g262" transform="translate(113.19165 84.35028)">
            <path d="M44.3254 10.8371C33.6885 19.1457 22.5063 26.7749 11.5185 34.6285C7.86715 37.2401 3.73801 39.9661 0 42.4634L18.1424 73.1153L40.3146 35.6424L45.6616 37.2443L57.4338 33.1139L57.4338 0C53.1672 3.72942 48.797 7.34456 44.3254 10.8371" id="path264" fill="#A7A5A6" stroke="none" />
          </g>
          <g id="g266" transform="translate(153.94495 115.8761)">
            <path d="M0 6.45L8.07857 6.45C5.06999 4.55922 2.39122 2.38053 0 0L0 6.45Z" id="path268" fill="#4072C1" stroke="none" />
          </g>
          <g id="g270" transform="translate(153.94434 86.199646)">
            <path d="M32.5384 0L0 0L0 29.6754C2.39122 31.3437 5.0721 32.8666 8.08068 34.1922L32.5384 34.1922L32.5384 0Z" id="path272" fill="#4072C1" stroke="none" />
          </g>
          <g id="g274" transform="translate(161.41528 83.98895)">
            <path d="M9.7803 66.1862L13.1906 38.6779L17.5692 0.270093C17.584 0.126733 17.4868 0 17.3578 0L8.78448 0L0.213303 0C0.0843201 0 -0.0150452 0.126739 0.00187683 0.270093L4.28323 37.8551L4.37839 38.6779L7.78444 66.1862L9.7803 66.1862Z" id="path276" fill="#235094" stroke="none" />
          </g>
          <g id="g278" transform="translate(170.35754 251.28497)">
            <path d="M36.7289 0L50.869 30.3527C50.869 30.3527 38.323 62.7788 0 62.7788L0 0L27.8511 0L36.7289 0Z" id="path280" fill="#396BBC" stroke="none" />
          </g>
          <g id="g282" transform="translate(80.21686 472.36127)">
            <path d="M75.2417 167.888L73.138 125.229L73.2331 10.2076L23.4192 0L16.958 123.968L0.312462 166.482C-0.850372 169.448 1.37593 172.638 4.61497 172.638L70.6368 172.638C73.2691 172.638 75.3685 170.473 75.2417 167.888" id="path284" fill="#1C2649" stroke="none" />
          </g>
          <g id="g286" transform="translate(112.25244 475.10846)">
            <path d="M1.58781 129.526L0 128.828L4.79936 0L6.37659 0.324094L1.58781 129.526Z" id="path288" fill="#2B3582" stroke="none" />
          </g>
          <g id="g290" transform="translate(96.88672 595.4931)">
            <path d="M25.6502 13.0353L0 1.56654L0.329826 0L25.739 11.3607L56.4676 1.27359L56.5077 2.90666L25.6502 13.0353Z" id="path292" fill="#2B3582" stroke="none" />
          </g>
          <g id="g294" transform="translate(134.67712 479.4237)">
            <path d="M1.5878 124.581L0 125.086L3.42509 0L5.00444 0.324144L1.5878 124.581Z" id="path296" fill="#2B3582" stroke="none" />
          </g>
          <g id="g298" transform="translate(242.86865 363.01605)">
            <path d="M30.792 109.225L48.5222 103.017L9.33445 0L0 27.311L30.792 109.225Z" id="path300" fill="#396BBC" stroke="none" />
          </g>
          <g id="g302" transform="translate(170.29321 46.35614)">
            <path d="M66.5145 21.1195C66.3284 20.7954 66.136 20.4713 65.9415 20.1513C56.3597 4.34025 37.9847 0 18.0198 0L0 0L0 8.05512C18.1107 8.36677 43.7397 12.4162 56.5479 31.0508C68.4321 48.3411 59.7912 74.0751 50.9578 91.9265L65.043 67.838C74.2315 53.4854 74.9673 35.8356 66.5145 21.1195" id="path304" fill="#D3D2D2" stroke="none" />
          </g>
          <g id="g306" transform="translate(193.93842 71.43591)">
            <path d="M41.3971 42.7584C42.7629 40.6268 43.9363 38.4223 44.9258 36.166C45.6172 34.4457 46.224 32.8147 46.7546 31.2668C49.9366 20.9949 49.3827 9.9832 44.8877 0C45.5432 1.50631 44.689 5.69489 44.5241 7.25107C44.2492 9.83569 43.7926 12.3995 43.1689 14.9239C41.9193 19.9768 39.9932 24.8655 37.4815 29.4427C35.9402 32.2558 34.1791 34.8924 32.2339 37.3669C25.1068 46.4338 15.5186 53.3172 5.17146 58.7918C3.44623 59.706 1.69563 60.5848 0 61.5551L15.4108 87.1998L41.3971 42.7584Z" id="path308" fill="#A7A5A6" stroke="none" />
          </g>
          <g id="g310" transform="translate(98.831055 0)">
            <path d="M19.0251 37.1288C19.0737 40.1809 19.1097 43.2226 17.5345 45.9527C16.1582 48.3441 13.8135 50.0478 11.5512 51.5728C5.80253 55.4476 1.65437 60.5462 0.409065 67.3901C-0.614235 73.0164 0.297012 78.9419 2.97789 84.0135C5.98013 89.6938 11.8239 92.6296 16.1476 97.1464C21.3867 102.623 24.8562 111.385 22.7145 118.881C21.6531 122.602 20.9913 126.444 21.2704 130.321C21.6658 135.831 24.2219 141.16 28.313 144.943C30.996 147.426 34.0384 149.096 36.1463 152.176C37.8716 154.694 39.0111 157.542 39.9753 160.409C40.4319 161.768 40.9309 163.108 41.4129 164.461C41.5377 164.81 42.3643 166.345 42.2121 166.701L45.5907 159.263C45.7725 158.866 45.9332 158.458 46.0728 158.045C46.6436 156.352 46.8508 154.546 46.6838 152.77C46.5104 150.948 45.819 149.273 45.3243 147.526C44.9945 146.362 44.652 145.126 44.6837 143.909C44.6964 143.393 44.7894 142.876 45.0389 142.423C45.9903 140.707 48.2927 140.661 49.5296 139.215C51.2315 137.225 50.5888 134.813 50.3837 132.465C50.1617 129.913 51.037 127.389 52.4367 125.224L54.7814 121.495C54.756 121.476 51.9271 119.307 51.9271 119.307C33.0553 103.421 35.1336 78.3311 35.1336 78.3311C35.1336 78.3311 33.0553 103.421 51.9271 119.307L98.557 35.4459C98.557 35.4459 99.9355 33.0233 99.9355 33.0213C104.342 25.2736 102.925 15.2509 96.743 8.84133C83.4486 -4.94401 61.6548 -0.175753 46.1003 6.77821C35.7193 11.4156 22.8646 18.7954 19.5663 30.366C18.9447 32.5455 18.987 34.8413 19.0251 37.1288" id="path312" fill="#662272" stroke="none" />
          </g>
          <g id="g314" transform="translate(207.83624 89.696594)">
            <path d="M4 0C2.70601 2.14356 1.41201 4.30644 0 6.45C1.41201 4.30644 2.70601 2.14356 4 0" id="path316" fill="#56C0EF" stroke="none" />
          </g>
          <g id="g318" transform="translate(207.59332 92.08368)">
            <path d="M4 0C2.66667 2.16288 1.5244 4.28711 0 6.45C1.5244 4.28711 2.66667 2.16288 4 0" id="path320" fill="#56C0EF" stroke="none" />
          </g>
          <g id="g322" transform="translate(132.88208 25.546387)">
            <path d="M76.7686 36.8953C76.7686 26.2389 72.0454 16.6338 64.506 9.89802C57.6812 3.80005 48.5497 0.058175 38.4943 0.00207603L38.4943 0C38.4583 0 38.4203 0 38.3843 0C38.3463 0 38.3103 0 38.2723 0L38.2723 0.00207603C17.1149 0.118426 0 16.5902 0 36.8953C0 42.2868 0.873199 47.5142 1.07828 52.8351C1.08038 52.806 1.0825 52.7853 1.0825 52.7853C1.0825 52.7853 1.08038 52.806 1.07828 52.8351C1.08463 53.0097 1.09731 53.1821 1.10365 53.3566C1.20514 56.7287 1.36371 60.107 1.67873 63.4686C3.04454 72.3985 7.09334 85.1242 18.6774 94.4218C24.1702 98.8285 31.0732 101.249 38.1623 101.268L38.2723 101.268L38.4943 101.268C38.5344 101.268 38.5746 101.268 38.6127 101.266C45.6975 101.249 52.5964 98.8327 58.085 94.4322C69.6394 85.1657 73.7009 72.492 75.0815 63.5642C75.4028 60.1714 75.5635 56.7619 75.6671 53.3566C75.8342 47.855 76.7686 42.4634 76.7686 36.8953" id="path324" fill="#56C0EF" stroke="none" />
          </g>
          <g id="g326" transform="translate(132.9411 53.975037)">
            <path d="M0.96199 0L0.96199 0C0.450348 2.13792 0.122635 4.34441 0 6.60491L53.6175 33.6956L8.3788 54.2521C9.45285 56.0368 10.6812 57.8028 12.0851 59.5211L68.2503 33.999L0.96199 0Z" id="path328" fill="#FFFFFF" stroke="none" />
          </g>
          <g id="g330" transform="translate(131.48712 21.262695)">
            <path d="M59.7319 23.7021L65.9014 14.1822C64.6264 13.0582 58.9835 3.17883 58.9835 3.17883L36.1284 0L29.9273 2.32283C8.66846 2.32283 0 6.85838 0 27.2362L0 41.4682C0 46.9512 1.97049 51.6155 2.47792 57.0694L11.3134 46.2531C15.5208 41.1005 22.4724 39.8684 29.1894 40.1717C41.5642 40.1717 53.0826 33.9616 59.7319 23.7021" id="path332" fill="#662272" stroke="none" />
          </g>
          <g id="g334" transform="translate(176.42456 72.61102)">
            <path d="M12.1126 24.6017C9.79112 24.6017 7.71704 24.1529 5.94317 23.2678C2.27705 21.4415 0 18.0736 0 14.4813L0 13.1142L1.11423 12.2936C1.16708 12.2541 7.52887 7.89099 14.3664 5.1069C20.614 2.56592 27.8447 0.968193 28.1513 0.903783L32.2783 0L31.4855 4.08054C31.4305 4.36934 30.1239 10.8267 25.2484 14.5021C23.5295 20.2677 19.8042 23.7789 14.6666 24.4334C13.7913 24.5456 12.9329 24.6017 12.1126 24.6017" id="path336" fill="#56C0EF" stroke="none" />
          </g>
          <g id="g338" transform="translate(179.20251 76.17883)">
            <path d="M0 10.914C0 10.914 6.10175 6.72957 12.6517 4.06185C18.7471 1.58318 25.9779 0 25.9779 0C25.9779 0 24.741 6.35975 20.0474 9.26849L0 10.914Z" id="path340" fill="#2F172E" stroke="none" />
          </g>
          <g id="g342" transform="translate(179.2027 81.161804)">
            <path d="M11.5312 13.1745C17.2227 12.4494 20.1277 7.4339 20.7134 0C20.7134 0 16.6033 0.47371 9.78055 2.57423C4.97696 4.05146 0 5.92967 0 5.92967C0 8.60778 1.84364 10.9971 4.42303 12.2832C6.59438 13.3657 9.15685 13.4778 11.5312 13.1745" id="path344" fill="#FFFFFF" stroke="none" />
          </g>
          <g id="g346" transform="translate(137.3493 76.17883)">
            <path d="M25.9757 10.914C25.9757 10.914 19.874 6.72957 13.3261 4.06185C7.23074 1.58318 0 0 0 0C0 0 1.23471 6.35975 5.93048 9.26849L25.9757 10.914Z" id="path348" fill="#2F172E" stroke="none" />
          </g>
          <g id="g350" transform="translate(142.61334 81.161804)">
            <path d="M9.18222 13.1745C3.48853 12.4494 0.583542 7.4339 0 0C0 0 4.11012 0.47371 10.9328 2.57423C15.7364 4.05146 20.7113 5.92967 20.7113 5.92967C20.7113 8.60778 18.8676 10.9971 16.2882 12.2832C14.119 13.3657 11.5544 13.4778 9.18222 13.1745" id="path352" fill="#FFFFFF" stroke="none" />
          </g>
          <g id="g354" transform="translate(179.20251 107.489136)">
            <path d="M0 0L0 6.45L18.1445 6.45C19.8084 4.35618 21.2313 2.18889 22.447 0L0 0Z" id="path356" fill="#FFFFFF" stroke="none" />
          </g>
          <g id="g358" transform="translate(193.198 35.44525)">
            <path d="M4.19046 0C4.81416 2.07559 6.59648 19.4865 0 25.9667C5.47804 25.9667 12.823 26.8352 15.9077 35.8585C16.4531 32.8812 16.9119 25.9646 17.024 23.0808C17.3475 14.9488 12.9562 6.28703 4.19046 0" id="path360" fill="#7F3387" stroke="none" />
          </g>
          <g id="g362" transform="translate(295.15265 595.6097)">
            <path d="M35.8261 11.1799L0.541229 6.36182L0 4.71216L35.5237 9.56349L53.2221 0L54.015 1.35258L35.8261 11.1799Z" id="path364" fill="#242859" stroke="none" />
          </g>
          <g id="g366" transform="translate(258.90167 476.8839)">
            <path d="M54.7275 127.153L0 0.525657L1.49689 0L56.1884 126.543L54.7275 127.153Z" id="path368" fill="#242859" stroke="none" />
          </g>
          <g id="g370" transform="translate(278.44672 470.03973)">
            <path d="M60.3387 131.438L0 0.525657L1.50323 0L61.787 130.793L60.3387 131.438Z" id="path372" fill="#242859" stroke="none" />
          </g>
          <g id="g374" transform="translate(304.89636 638.84174)">
            <path d="M75.8933 0L0 0L0.983123 4.13899C1.60049 5.54479 2.9621 6.45001 4.46319 6.45001L72.9672 6.45001C76.2062 6.45001 77.9737 2.55692 75.8933 0" id="path376" fill="#141A25" stroke="none" />
          </g>
          <g id="g378" transform="translate(263.5114 491.6585)">
            <path d="M40.9278 20.2199L8.66422 33.5731L0 13.3532L32.2614 0L40.9278 20.2199Z" id="path380" fill="#242859" stroke="none" />
          </g>
          <g id="g382" transform="translate(278.5031 526.2463)">
            <path d="M40.9278 20.2199L8.66422 33.5731L0 13.3511L32.2614 0L40.9278 20.2199Z" id="path384" fill="#242859" stroke="none" />
          </g>
          <g id="g386" transform="translate(134.21472 229.40314)">
            <path d="M0 21.7615L35.9825 37.2152L72.8678 21.882L72.8678 0L35.9783 15.194L0 0L0 21.7615Z" id="path388" fill="#1C2649" stroke="none" />
          </g>
          <g id="g390" transform="translate(151.48804 236.69818)">
            <path d="M0 21.8862L0 0L18.7069 7.8993L37.4139 0.193222L37.4139 22.1438L18.7006 29.9205L0 21.8862Z" id="path392" fill="#141A25" stroke="none" />
          </g>
          <g id="g394" transform="translate(159.45172 240.06244)">
            <path d="M10.7404 18.1069L21.4872 13.4529L21.4872 0.110131L10.7425 4.53554L0 0L0 13.3947L10.7404 18.1069Z" id="path396" fill="#FFFFFF" stroke="none" />
          </g>
          <g id="g398" transform="translate(207.08234 251.28497)">
            <path d="M0 0L4.37863 45.1893C11.3493 37.5663 14.5714 29.7024 14.5714 29.7024L0 0Z" id="path400" fill="#242859" stroke="none" />
          </g>
          <g id="g402" transform="translate(106.66266 505.19244)">
            <path d="M37.5598 25.4909L0 24.1425L0.89856 0L38.4583 1.34839L37.5598 25.4909Z" id="path404" fill="#2B3582" stroke="none" />
          </g>
          <g id="g406" transform="translate(105.27307 542.596)">
            <path d="M37.5598 25.4909L0 24.1446L0.89856 0L38.4583 1.34839L37.5598 25.4909Z" id="path408" fill="#2B3582" stroke="none" />
          </g>
          <g id="g410" transform="translate(80.06348 638.84174)">
            <path d="M0.312119 0L0.312119 0C-0.850723 3.10749 1.37981 6.45001 4.61463 6.45001L70.6386 6.45001C73.273 6.45001 75.3703 4.18249 75.2413 1.47321L75.1737 0L0.312119 0Z" id="path412" fill="#141A25" stroke="none" />
          </g>
          <g id="g414" transform="translate(248.91241 157.71448)">
            <path d="M8.84182 27.9737L0 4.52101L12.4213 0L21.2631 23.4507L8.84182 27.9737Z" id="path416" fill="#242859" stroke="none" />
          </g>
          <g id="g418" transform="translate(158.71027 7.0787964)">
            <path d="M38.6782 28.3664C38.6782 28.3664 36.6231 -7.31963 0 1.36087C0 1.36087 30.2106 0.75004 38.6782 28.3664" id="path420" fill="#A81890" stroke="none" />
          </g>
          <g id="g422" transform="translate(162.97815 20.028687)">
            <path d="M0 2.74959C0 2.74959 19.0896 -8.79186 34.4095 15.4171C34.4095 15.4171 25.7072 5.04126 0 2.74959" id="path424" fill="#A81890" stroke="none" />
          </g>
          <g id="g426" transform="translate(122.50043 199.4173)">
            <path d="M2.51808 0L0 15.8526L0.735763 18.7489L9.19279 17.3589L7.86926 8.90697L2.51808 0Z" id="path428" fill="#141A25" stroke="none" />
          </g>
          <g id="g430" transform="translate(117.13818 35.44574)">
            <path d="M10.7215 93.5824C10.7193 93.8172 10.7236 94.054 10.7299 94.2888C10.8716 99.0279 13.1021 103.923 17.2926 106.269C15.062 103.898 13.8801 100.692 13.5863 97.4759C13.1825 93.0463 14.6265 88.9055 15.2861 84.5861C15.9627 80.1793 16.2439 75.6812 15.8168 71.237C14.766 60.2753 7.17585 49.9492 9.35354 38.7257C10.176 34.4748 12.1338 30.4316 15.0007 27.1447C18.1615 23.5275 22.3583 21.9215 27.1682 21.6244C34.1326 21.1943 40.9828 23.5067 47.9408 22.7152C59.9942 21.3418 72.1892 14.2029 80.2509 0C80.2509 0 59.4952 22.1916 40.1244 17.9282C31.3566 15.9981 22.2822 14.3733 13.5715 17.0764C4.94954 19.7545 -0.0210724 26.5671 6.86645e-05 35.4533C0.0254364 47.3522 6.91157 57.3998 10.4783 68.3719C12.1211 73.4269 12.9668 78.4777 12.0936 83.755C11.5566 87.0232 10.7405 90.281 10.7215 93.5824" id="path432" fill="#A81890" stroke="none" />
          </g>
        </g>
        <path d="M256.243 230.409L310.245 230.409Q310.441 230.409 310.638 230.419Q310.834 230.428 311.029 230.448Q311.225 230.467 311.419 230.496Q311.613 230.524 311.806 230.563Q311.998 230.601 312.189 230.649Q312.379 230.696 312.567 230.753Q312.755 230.81 312.94 230.877Q313.125 230.943 313.306 231.018Q313.488 231.093 313.665 231.177Q313.843 231.261 314.016 231.354Q314.189 231.446 314.357 231.547Q314.526 231.648 314.689 231.757Q314.852 231.866 315.01 231.983Q315.168 232.1 315.32 232.225Q315.471 232.349 315.617 232.481Q315.762 232.613 315.901 232.752Q316.04 232.891 316.172 233.036Q316.304 233.182 316.428 233.334Q316.553 233.485 316.67 233.643Q316.787 233.801 316.896 233.964Q317.005 234.127 317.106 234.296Q317.207 234.464 317.3 234.637Q317.392 234.811 317.476 234.988Q317.56 235.166 317.635 235.347Q317.71 235.528 317.777 235.713Q317.843 235.898 317.9 236.086Q317.957 236.274 318.004 236.464Q318.052 236.655 318.09 236.847Q318.129 237.04 318.158 237.234Q318.186 237.429 318.206 237.624Q318.225 237.819 318.234 238.016Q318.244 238.212 318.244 238.408L318.244 243.41Q318.244 243.606 318.234 243.803Q318.225 243.999 318.206 244.194Q318.186 244.39 318.158 244.584Q318.129 244.778 318.09 244.971Q318.052 245.163 318.004 245.354Q317.957 245.544 317.9 245.732Q317.843 245.92 317.777 246.105Q317.71 246.29 317.635 246.471Q317.56 246.653 317.476 246.83Q317.392 247.008 317.3 247.181Q317.207 247.354 317.106 247.522Q317.005 247.691 316.896 247.854Q316.787 248.017 316.67 248.175Q316.553 248.333 316.428 248.485Q316.304 248.636 316.172 248.782Q316.04 248.927 315.901 249.066Q315.762 249.205 315.617 249.337Q315.471 249.469 315.32 249.593Q315.168 249.718 315.01 249.835Q314.852 249.952 314.689 250.061Q314.526 250.17 314.357 250.271Q314.189 250.372 314.016 250.465Q313.843 250.557 313.665 250.641Q313.488 250.725 313.306 250.8Q313.125 250.875 312.94 250.941Q312.755 251.008 312.567 251.065Q312.379 251.122 312.189 251.169Q311.998 251.217 311.806 251.255Q311.613 251.294 311.419 251.322Q311.225 251.351 311.029 251.371Q310.834 251.39 310.638 251.399Q310.441 251.409 310.245 251.409L256.243 251.409Q256.047 251.409 255.851 251.399Q255.655 251.39 255.459 251.371Q255.264 251.351 255.069 251.322Q254.875 251.294 254.683 251.255Q254.49 251.217 254.3 251.169Q254.109 251.122 253.921 251.065Q253.733 251.008 253.548 250.941Q253.363 250.875 253.182 250.8Q253.001 250.725 252.823 250.641Q252.646 250.557 252.472 250.465Q252.299 250.372 252.131 250.271Q251.962 250.17 251.799 250.061Q251.636 249.952 251.478 249.835Q251.32 249.718 251.169 249.593Q251.017 249.469 250.871 249.337Q250.726 249.205 250.587 249.066Q250.448 248.927 250.316 248.782Q250.184 248.636 250.06 248.485Q249.935 248.333 249.818 248.175Q249.701 248.017 249.592 247.854Q249.483 247.691 249.382 247.522Q249.281 247.354 249.189 247.181Q249.096 247.008 249.012 246.83Q248.928 246.653 248.853 246.471Q248.778 246.29 248.712 246.105Q248.646 245.92 248.589 245.732Q248.532 245.544 248.484 245.354Q248.436 245.163 248.398 244.971Q248.36 244.778 248.331 244.584Q248.302 244.389 248.283 244.194Q248.263 243.999 248.254 243.803Q248.244 243.606 248.244 243.41L248.244 238.408Q248.244 238.212 248.254 238.016Q248.263 237.819 248.283 237.624Q248.302 237.429 248.331 237.234Q248.36 237.04 248.398 236.847Q248.436 236.655 248.484 236.464Q248.532 236.274 248.589 236.086Q248.646 235.898 248.712 235.713Q248.778 235.528 248.853 235.347Q248.928 235.166 249.012 234.988Q249.096 234.811 249.189 234.637Q249.281 234.464 249.382 234.296Q249.483 234.127 249.592 233.964Q249.701 233.801 249.818 233.643Q249.935 233.485 250.06 233.334Q250.184 233.182 250.316 233.036Q250.448 232.891 250.587 232.752Q250.726 232.613 250.871 232.481Q251.017 232.349 251.169 232.225Q251.32 232.1 251.478 231.983Q251.636 231.866 251.799 231.757Q251.962 231.648 252.131 231.547Q252.299 231.446 252.472 231.354Q252.646 231.261 252.823 231.177Q253.001 231.093 253.182 231.018Q253.363 230.943 253.548 230.877Q253.733 230.81 253.921 230.753Q254.109 230.696 254.3 230.649Q254.49 230.601 254.683 230.563Q254.875 230.524 255.069 230.496Q255.264 230.467 255.459 230.448Q255.655 230.428 255.851 230.419Q256.047 230.409 256.243 230.409Z" id="Rectangle-3" fill="#141A25" fill-rule="evenodd" stroke="none" />
        <path d="M256.243 240.463L310.245 240.463Q310.441 240.463 310.638 240.472Q310.834 240.482 311.029 240.501Q311.225 240.52 311.419 240.549Q311.613 240.578 311.806 240.616Q311.998 240.655 312.189 240.702Q312.379 240.75 312.567 240.807Q312.755 240.864 312.94 240.93Q313.125 240.996 313.306 241.072Q313.488 241.147 313.665 241.231Q313.843 241.315 314.016 241.407Q314.189 241.5 314.357 241.601Q314.526 241.702 314.689 241.811Q314.852 241.92 315.01 242.037Q315.168 242.154 315.32 242.278Q315.471 242.403 315.617 242.535Q315.762 242.667 315.901 242.805Q316.04 242.944 316.172 243.09Q316.304 243.235 316.428 243.387Q316.553 243.539 316.67 243.697Q316.787 243.854 316.896 244.018Q317.005 244.181 317.106 244.349Q317.207 244.518 317.3 244.691Q317.392 244.864 317.476 245.042Q317.56 245.219 317.635 245.401Q317.71 245.582 317.777 245.767Q317.843 245.952 317.9 246.14Q317.957 246.328 318.004 246.518Q318.052 246.708 318.09 246.901Q318.129 247.094 318.158 247.288Q318.186 247.482 318.206 247.678Q318.225 247.873 318.234 248.069Q318.244 248.265 318.244 248.462L318.244 250.464Q318.244 250.66 318.234 250.856Q318.225 251.052 318.206 251.248Q318.186 251.443 318.158 251.637Q318.129 251.832 318.09 252.024Q318.052 252.217 318.004 252.407Q317.957 252.598 317.9 252.786Q317.843 252.974 317.777 253.158Q317.71 253.343 317.635 253.525Q317.56 253.706 317.476 253.884Q317.392 254.061 317.3 254.234Q317.207 254.408 317.106 254.576Q317.005 254.744 316.896 254.908Q316.787 255.071 316.67 255.229Q316.553 255.386 316.428 255.538Q316.304 255.69 316.172 255.835Q316.04 255.981 315.901 256.12Q315.762 256.259 315.617 256.391Q315.471 256.522 315.32 256.647Q315.168 256.771 315.01 256.888Q314.852 257.005 314.689 257.115Q314.526 257.224 314.357 257.325Q314.189 257.426 314.016 257.518Q313.843 257.611 313.665 257.695Q313.488 257.779 313.306 257.854Q313.125 257.929 312.94 257.995Q312.755 258.061 312.567 258.118Q312.379 258.175 312.189 258.223Q311.998 258.271 311.806 258.309Q311.613 258.347 311.419 258.376Q311.225 258.405 311.029 258.424Q310.834 258.443 310.638 258.453Q310.441 258.463 310.245 258.463L256.243 258.463Q256.047 258.463 255.851 258.453Q255.655 258.443 255.459 258.424Q255.264 258.405 255.069 258.376Q254.875 258.347 254.683 258.309Q254.49 258.271 254.3 258.223Q254.109 258.175 253.921 258.118Q253.733 258.061 253.548 257.995Q253.363 257.929 253.182 257.854Q253.001 257.779 252.823 257.695Q252.646 257.611 252.472 257.518Q252.299 257.426 252.131 257.325Q251.962 257.224 251.799 257.115Q251.636 257.005 251.478 256.888Q251.32 256.771 251.169 256.647Q251.017 256.522 250.871 256.391Q250.726 256.259 250.587 256.12Q250.448 255.981 250.316 255.835Q250.184 255.69 250.06 255.538Q249.935 255.386 249.818 255.229Q249.701 255.071 249.592 254.908Q249.483 254.744 249.382 254.576Q249.281 254.408 249.189 254.234Q249.096 254.061 249.012 253.884Q248.928 253.706 248.853 253.525Q248.778 253.343 248.712 253.158Q248.646 252.974 248.589 252.786Q248.532 252.598 248.484 252.407Q248.436 252.217 248.398 252.024Q248.36 251.832 248.331 251.637Q248.302 251.443 248.283 251.248Q248.263 251.052 248.254 250.856Q248.244 250.66 248.244 250.464L248.244 248.462Q248.244 248.265 248.254 248.069Q248.263 247.873 248.283 247.678Q248.302 247.482 248.331 247.288Q248.36 247.094 248.398 246.901Q248.436 246.708 248.484 246.518Q248.532 246.328 248.589 246.14Q248.646 245.952 248.712 245.767Q248.778 245.582 248.853 245.401Q248.928 245.219 249.012 245.042Q249.096 244.864 249.189 244.691Q249.281 244.518 249.382 244.349Q249.483 244.181 249.592 244.018Q249.701 243.854 249.818 243.697Q249.935 243.539 250.06 243.387Q250.184 243.235 250.316 243.09Q250.448 242.944 250.587 242.805Q250.726 242.667 250.871 242.535Q251.017 242.403 251.169 242.278Q251.32 242.154 251.478 242.037Q251.636 241.92 251.799 241.811Q251.962 241.702 252.131 241.601Q252.299 241.5 252.472 241.407Q252.646 241.315 252.823 241.231Q253.001 241.147 253.182 241.072Q253.363 240.996 253.548 240.93Q253.733 240.864 253.921 240.807Q254.109 240.75 254.3 240.702Q254.49 240.655 254.683 240.616Q254.875 240.578 255.069 240.549Q255.264 240.52 255.459 240.501Q255.655 240.482 255.851 240.472Q256.047 240.463 256.243 240.463Z" id="Rectangle-2" fill="#56C0EF" fill-rule="evenodd" stroke="none" />
        <path d="M263.744 240.463L263.744 258.463" id="l3" fill="none" fill-rule="evenodd" stroke="#235094" stroke-width="1" />
        <path d="M282.744 240.463L282.744 258.463" id="l2" fill="none" fill-rule="evenodd" stroke="#235094" stroke-width="1" />
        <path d="M301.744 240.463L301.744 258.463" id="l1" fill="none" fill-rule="evenodd" stroke="#235094" stroke-width="1" />
      </g>
    </g>
    <g id="Dataverse_scalable" transform="translate(235.62787 144.46265)">
      <path d="M0 0L96 0L96 96L0 96L0 0Z" id="Background" fill="#FFFFFF" fill-opacity="0" fill-rule="evenodd" stroke="none" />
      <g clip-path="url(#mask_2)">
        <g id="Mask-group">
          <path d="M0 0L95.9998 0L95.9998 96L0 96L0 0Z" id="Rectangle" fill="none" fill-rule="evenodd" stroke="none" />
          <g clip-path="url(#mask_3)">
            <g id="Group">
              <g id="Mask-group">
                <path d="M0 0L95.9998 0L95.9998 95.9998L0 95.9998L0 0Z" id="Rectangle" fill="none" fill-rule="evenodd" stroke="none" />
                <g clip-path="url(#mask_4)">
                  <g id="Group" transform="translate(-0.08243275 11.181258)">
                    <g id="Mask-group">
                      <path d="M92.0365 10.3632L92.0334 10.3631C90.7527 7.38814 88.5368 4.78544 85.5161 3.04144C78.0636 -1.26129 68.5342 1.29184 64.2309 8.74394L64.2268 8.74364C63.8411 8.39954 63.4442 8.06234 63.0366 7.73124C49.8317 -2.99616 29.185 -3.04423 13.9592 10.6423C0.282364 22.9366 -3.99641 44.5982 4.04307 63.369L4.04805 63.3693C5.33463 66.3061 7.53594 68.8734 10.5256 70.5995C17.9758 74.9008 27.5014 72.3508 31.8066 64.9043L31.8108 64.9045L31.8146 64.8978C32.2003 65.242 32.5969 65.5798 33.0044 65.9109C46.2093 76.6383 66.856 76.6863 82.0818 62.9998C95.7368 50.7252 100.024 29.1132 92.0365 10.3632L92.0365 10.3632Z" id="Shape" fill="none" stroke="none" />
                      <g clip-path="url(#mask_5)">
                        <g id="Group" transform="translate(0.00038337708 -2.0699263)">
                          <path d="M39.583 53.5139C52.6096 61.0348 64.3141 58.1335 70.9329 46.6693C77.5518 35.2051 75.0633 19.5726 63.0366 9.80237C49.8317 -0.925082 29.185 -0.973152 13.9592 12.7134C0.282364 25.0077 -3.99641 46.6693 4.04308 65.4401L4.04784 65.4404C5.33442 68.3772 7.53572 70.9445 10.5254 72.6705C17.9755 76.9719 27.5011 74.4218 31.8063 66.9754L31.8108 66.9756L39.583 53.5139L39.583 53.5139Z" id="Shape" fill="url(#gradient_1)" fill-rule="evenodd" stroke="none" />
                          <path d="M92.032 12.433L92.0356 12.4333C100.023 31.1832 95.7359 52.7952 82.0809 65.0698C66.8551 78.7564 46.2084 78.7083 33.0034 67.9809C20.9767 58.2107 18.4883 42.5782 25.1072 31.114C31.726 19.6498 43.4305 16.7484 56.4571 24.2693L64.2258 10.8136L64.2301 10.8139C68.5334 3.36217 78.0625 0.809299 85.515 5.11197C88.5354 6.85577 90.7513 9.45827 92.032 12.433L92.032 12.433Z" id="Shape" fill="url(#gradient_2)" fill-rule="evenodd" stroke="none" />
                          <path d="M56.4609 24.2701C43.4343 16.7492 31.7298 19.6506 25.1109 31.1148C18.7162 42.1907 20.8224 57.1573 31.818 66.9691L39.5859 53.5147C52.6125 61.0356 64.317 58.1343 70.9359 46.6701C77.3306 35.5941 75.2244 20.6276 64.2288 10.8157L56.4609 24.2701L56.4609 24.2701Z" id="Shape" fill="#088142" fill-rule="evenodd" stroke="none" />
                          <path d="M61.306 0L68.1824 3.97015L19.4594 88.3609L12.5829 84.3908L61.306 0Z" id="Rectangle" fill="url(#gradient_3)" fill-opacity="0.25" fill-rule="evenodd" stroke="none" />
                          <g id="Group" transform="translate(31.138908 22.40612)">
                            <path d="M31.5076 25.3278C26.8454 33.403 16.5197 36.1698 8.44454 31.5075C0.369343 26.8453 -2.39746 16.5196 2.26474 8.44445C6.92704 0.369348 17.2526 -2.39745 25.3278 2.26475C33.403 6.92695 36.1698 17.2526 31.5076 25.3278L31.5076 25.3278Z" id="Shape" fill="#000000" fill-opacity="0.23921569" stroke="none" />
                          </g>
                          <g id="Group" transform="translate(31.138908 24.0061)">
                            <path d="M31.5076 25.3279C26.8454 33.403 16.5197 36.1698 8.44454 31.5076C0.369343 26.8454 -2.39746 16.5197 2.26474 8.44447C6.92704 0.369267 17.2526 -2.39743 25.3278 2.26477C33.403 6.92697 36.1698 17.2527 31.5076 25.3279L31.5076 25.3279Z" id="Shape" fill="#000000" fill-opacity="0.32156864" stroke="none" />
                          </g>
                          <path d="M62.6465 47.334C57.9842 55.4091 47.6586 58.1759 39.5835 53.5137C31.5083 48.8515 28.7415 38.5258 33.4037 30.4506C38.0659 22.3754 48.3916 19.6087 56.4668 24.2709C64.5419 28.9331 67.3087 39.2588 62.6465 47.334L62.6465 47.334Z" id="Shape" fill="url(#gradient_4)" stroke="none" />
                        </g>
                      </g>
                    </g>
                  </g>
                </g>
              </g>
            </g>
          </g>
        </g>
      </g>
    </g>
  </g>
</svg>